<svg xmlns="http://www.w3.org/2000/svg" viewBox="0 0 400 720" preserveAspectRatio="xMidYMax meet">
  <ellipse cx="200" cy="710" rx="120" ry="14" fill="#000" opacity="0.25"/>
  <path d="M120,720 L120,360 Q120,300 200,300 Q280,300 280,360 L280,720 Z" fill="#4a6fb8"/>
  <path d="M150,720 L150,420 Q150,360 200,360 Q250,360 250,420 L250,720 Z" fill="#f0e0d0"/>
  <rect x="170" y="430" width="60" height="20" fill="#3a4f7a"/>
  <circle cx="200" cy="200" r="90" fill="#f4e2c8"/>
  <path d="M120,180 Q120,90 200,90 Q280,90 280,180 Q280,220 270,230 L260,180 Q200,160 140,180 L130,230 Q120,220 120,180 Z" fill="#3a2a18"/>
  <path d="M165,195 L175,190" stroke="#1a1a2e" stroke-width="3" stroke-linecap="round"/>
  <path d="M225,190 L235,195" stroke="#1a1a2e" stroke-width="3" stroke-linecap="round"/>
  <path d="M185,240 Q200,232 215,240" stroke="#8a3a3a" stroke-width="3" fill="none" stroke-linecap="round"/>
  <circle cx="290" cy="150" r="6" fill="#fff" opacity="0.7"/>
  <circle cx="310" cy="120" r="10" fill="#fff" opacity="0.7"/>
  <circle cx="340" cy="80" r="16" fill="#fff" opacity="0.7"/>
  <text x="200" y="690" text-anchor="middle" font-family="sans-serif" font-size="20" fill="#fff" opacity="0.4">alice_think</text>
</svg>
